PathFileType	4	(X/Y/Z)	C:/Users/opensim2020/Desktop/walking_exp_matlab/subject06_cal10_run.trc	
DataRate	CameraRate	NumFrames	NumMarkers	Units	OrigDataRate	OrigDataStartFrame	OrigNumFrames	
100.00	100.00	4	49	mm	100.00	183	118	
Frame#	Time	LKNE			RTIB			RFRM			RWRA			LTHI			RKNE			RELB			RFHD			LWRA			RUPA			STRN			RASI			CLAV			RSHO			LASI			RTHI			RBHD			LBHD			C7			RWRB			RFIN			RTOE			LSHO			RBAK			LTIB			RANK			LFIN			LANK			RHEE			T10			LHEE			LTOE			LFHD			LPSI			RPSI			LUPA			LELB			LFRM			LWRB			*39			*40			*41			*42			*43			*44			*45			*46			*47			*48			
		X1	Y1	Z1	X2	Y2	Z2	X3	Y3	Z3	X4	Y4	Z4	X5	Y5	Z5	X6	Y6	Z6	X7	Y7	Z7	X8	Y8	Z8	X9	Y9	Z9	X10	Y10	Z10	X11	Y11	Z11	X12	Y12	Z12	X13	Y13	Z13	X14	Y14	Z14	X15	Y15	Z15	X16	Y16	Z16	X17	Y17	Z17	X18	Y18	Z18	X19	Y19	Z19	X20	Y20	Z20	X21	Y21	Z21	X22	Y22	Z22	X23	Y23	Z23	X24	Y24	Z24	X25	Y25	Z25	X26	Y26	Z26	X27	Y27	Z27	X28	Y28	Z28	X29	Y29	Z29	X30	Y30	Z30	X31	Y31	Z31	X32	Y32	Z32	X33	Y33	Z33	X34	Y34	Z34	X35	Y35	Z35	X36	Y36	Z36	X37	Y37	Z37	X38	Y38	Z38	X39	Y39	Z39	X40	Y40	Z40	X41	Y41	Z41	X42	Y42	Z42	X43	Y43	Z43	X44	Y44	Z44	X45	Y45	Z45	X46	Y46	Z46	X47	Y47	Z47	X48	Y48	Z48	X49	Y49	Z49	

15	0.140	103.48278	-1742.78577	499.54602	343.20554	-1359.42029	370.53607	505.92883	-1678.38574	1145.92334	451.58557	-1576.38196	1058.89966	75.02010	-1668.79236	649.56763	359.24277	-1321.91174	625.07739	503.43628	-1708.97754	1252.70203	320.02988	-1324.41553	1614.53076	101.51254	-1321.19702	1163.26440	467.84805	-1634.77051	1334.98706	244.91292	-1402.11560	1163.05310	339.17972	-1483.76794	959.07465	246.71542	-1393.34229	1345.09778	383.43954	-1469.37915	1407.60266	127.28744	-1486.40222	927.35321	390.50000	-1404.92993	715.74451	304.38803	-1461.93530	1588.29431	175.55750	-1449.81323	1592.01172	218.98338	-1482.01672	1445.48096	488.50058	-1620.21338	1024.84033	492.67688	-1547.54663	993.61987	280.00189	-1273.23816	122.46247	84.09676	-1404.52722	1396.51550	266.27679	-1602.28577	1308.83093	110.23753	-1924.14172	314.99585	289.95892	-1409.77698	193.40854	131.22409	-1236.79883	1145.19397	147.17076	-2026.94653	183.97015	245.63425	-1455.64612	180.22952	208.40501	-1604.05603	1139.26624	184.67107	-2058.18506	218.15921	204.34030	-2011.08984	40.65680	188.56772	-1310.60071	1623.40063	142.23239	-1626.15784	1000.90936	308.30206	-1625.22778	1011.04614	-33.75248	-1435.85938	1236.93323	-82.99436	-1463.92773	1147.80835	-9.55865	-1366.11597	1110.85632	82.23574	-1295.99963	1100.73145							238.14468	-1407.69714	1679.37109																					 
16	0.150	102.84323	-1713.16589	510.84763	343.11365	-1308.61475	368.58209	502.39191	-1645.07056	1155.45959	446.75717	-1541.99719	1070.33264	74.75310	-1638.79285	657.89209	358.87082	-1287.32727	627.53711	501.13696	-1677.30017	1261.17383	323.03888	-1290.27051	1620.88757	106.00996	-1288.13574	1179.49048	467.06998	-1602.00073	1343.56921	245.87877	-1364.48621	1172.12048	338.34607	-1446.33228	966.10309	248.38857	-1359.56628	1353.58936	384.46924	-1435.92493	1414.66821	127.54839	-1447.23645	934.80066	390.11395	-1370.59778	718.43707	307.19431	-1428.04724	1595.87878	178.35805	-1415.81067	1600.24951	221.19327	-1448.22009	1453.17200	484.31406	-1584.43652	1035.39099	487.32108	-1510.74072	1004.84869	276.15640	-1202.56360	120.94476	87.23750	-1370.46362	1406.23779	265.53165	-1566.70825	1317.39929	109.08336	-1894.66565	326.87497	287.69467	-1342.91968	187.98947	138.70398	-1203.95703	1163.10938	145.43076	-2000.95642	194.67915	243.18546	-1387.45544	173.72212	207.00046	-1566.74109	1146.71741	180.45410	-2025.39099	233.22307	201.71182	-1992.13208	51.25215	191.62379	-1275.50793	1630.73547	140.75166	-1585.96606	1008.12567	307.20206	-1585.80933	1017.88959	-31.23430	-1399.40320	1247.68945	-80.88147	-1426.67273	1157.83789	-4.48643	-1330.00647	1123.49915	89.18901	-1261.17249	1116.97131							241.53824	-1372.89368	1686.90820																					 
17	0.160	101.81793	-1676.55359	520.68762	343.09909	-1260.09900	365.21466	499.24332	-1610.52600	1163.25964	443.14664	-1505.44653	1080.06799	73.15385	-1601.54126	668.35974	358.44016	-1253.87561	627.46826	499.00958	-1644.65747	1267.78491	325.98111	-1256.37720	1626.75586	110.00043	-1255.25073	1194.01294	466.37869	-1568.62512	1350.56409	245.07147	-1329.15881	1177.78076	338.19223	-1409.99646	971.26276	249.93388	-1325.48669	1361.04065	385.68134	-1402.08398	1420.59167	127.50229	-1408.75085	941.78381	389.39685	-1336.61328	718.58484	309.91159	-1394.18335	1602.27600	181.09996	-1381.90125	1607.39978	223.33965	-1414.61438	1459.45251	480.36264	-1547.49268	1044.28418	482.54242	-1473.17920	1014.81183	272.70270	-1135.10437	119.17260	90.14889	-1336.77625	1415.16724	265.23019	-1531.27625	1324.51025	108.25580	-1862.35120	336.75909	286.08850	-1278.92859	182.79556	144.83012	-1172.25293	1179.20251	143.04535	-1966.74963	209.12035	241.28041	-1321.93115	167.93994	206.37825	-1529.47278	1153.74451	179.05078	-1993.02551	246.49911	198.72922	-1972.41992	61.51461	194.43036	-1241.52588	1637.27441	139.85889	-1546.54199	1014.79224	306.82352	-1547.53723	1022.94189	-29.13728	-1363.45288	1257.57068	-79.33648	-1389.96899	1166.75708	-0.06664	-1293.42334	1135.42627	95.34927	-1227.30444	1131.02917							244.81642	-1338.68799	1693.44116																					 
18	0.170	101.13219	-1641.77283	524.45386	342.39996	-1214.48462	360.79745	496.51273	-1574.84741	1169.19153	439.61749	-1468.52917	1088.39722	71.62344	-1564.88074	674.32751	358.28754	-1221.80859	624.48785	497.40408	-1611.13672	1272.53186	328.77307	-1222.57422	1632.33240	113.16932	-1222.68005	1205.97192	465.95190	-1534.71863	1355.73572	245.92351	-1291.95813	1184.53479	338.04535	-1373.01001	975.18243	251.24742	-1291.26038	1367.29480	387.27423	-1367.79590	1425.31421	127.12789	-1370.57336	947.93176	389.22314	-1303.26038	716.29352	312.59177	-1360.42346	1607.81689	183.79393	-1348.11487	1613.63843	225.37117	-1381.10950	1464.58582	476.86594	-1509.53308	1051.46399	478.09811	-1434.51135	1023.12213	269.59735	-1071.39343	117.24219	92.51450	-1303.43994	1422.85376	265.63492	-1495.95044	1329.73865	107.34620	-1827.39185	344.46872	285.03497	-1217.93506	177.97873	150.49452	-1140.69678	1192.97998	143.27403	-1937.04041	220.50406	240.19014	-1259.84778	163.21181	206.64171	-1492.27087	1160.16846	180.14111	-1963.01685	257.96689	197.40724	-1943.77466	70.82523	197.24399	-1207.70483	1643.52966	139.99181	-1508.18311	1020.74463	306.66867	-1510.44067	1026.48865	-27.33153	-1328.26892	1266.03918	-78.00933	-1353.69836	1174.26147	3.74409	-1258.37891	1145.15234	100.77129	-1194.00916	1143.12634							247.95372	-1304.97571	1699.36340																					 
